<svg width="724.848389" height="250.148438" viewBox="0 0 724.848 250.148" fill="none" xmlns="http://www.w3.org/2000/svg" xmlns:xlink="http://www.w3.org/1999/xlink">
	<desc>
			Created with Pixso.
	</desc>
	<defs>
		<filter id="filter_2_2_dd" x="0.000000" y="0.000000" width="724.848389" height="250.148438" filterUnits="userSpaceOnUse" color-interpolation-filters="sRGB">
			<feFlood flood-opacity="0" result="BackgroundImageFix"/>
			<feColorMatrix in="SourceAlpha" type="matrix" values="0 0 0 0 0 0 0 0 0 0 0 0 0 0 0 0 0 0 127 0" result="hardAlpha"/>
			<feOffset dx="0" dy="4"/>
			<feGaussianBlur stdDeviation="1.33333"/>
			<feComposite in2="hardAlpha" operator="out" k2="-1" k3="1"/>
			<feColorMatrix type="matrix" values="0 0 0 0 0 0 0 0 0 0 0 0 0 0 0 0 0 0 0.25 0"/>
			<feBlend mode="normal" in2="BackgroundImageFix" result="effect_dropShadow_1"/>
			<feBlend mode="normal" in="SourceGraphic" in2="effect_dropShadow_1" result="shape"/>
			<feColorMatrix in="SourceAlpha" type="matrix" values="0 0 0 0 0 0 0 0 0 0 0 0 0 0 0 0 0 0 127 0" result="hardAlpha"/>
			<feOffset dx="0" dy="4"/>
			<feGaussianBlur stdDeviation="1.33333"/>
			<feComposite in2="hardAlpha" operator="arithmetic" k2="-1" k3="1"/>
			<feColorMatrix type="matrix" values="0 0 0 0 0 0 0 0 0 0 0 0 0 0 0 0 0 0 0.25 0"/>
			<feBlend mode="normal" in2="shape" result="effect_innerShadow_2"/>
			<feColorMatrix in="SourceAlpha" type="matrix" values="0 0 0 0 0 0 0 0 0 0 0 0 0 0 0 0 0 0 127 0" result="hardAlpha"/>
			<feOffset dx="0" dy="4"/>
			<feGaussianBlur stdDeviation="1.33333"/>
			<feComposite in2="hardAlpha" operator="arithmetic" k2="-1" k3="1"/>
			<feColorMatrix type="matrix" values="0 0 0 0 0 0 0 0 0 0 0 0 0 0 0 0 0 0 0.25 0"/>
			<feBlend mode="normal" in2="effect_innerShadow_2" result="effect_innerShadow_3"/>
		</filter>
	</defs>
	<g filter="url(#filter_2_2_dd)">
		<path id="ЗАБОРСТРОЙ" d="M24.42 93.54L6 93.54L6 38.56L60.98 38.56L60.98 97.55L46.28 111.96L60.98 126.66L60.98 240.14L6 240.14L6 148.53L24.42 148.53L24.42 222L42.56 222L42.56 134.18L33.63 124.97L24.42 134.18L11.48 121.18L42.56 89.82L42.56 56.98L24.42 56.98L24.42 93.54ZM93.42 93.54L75 93.54L75 38.56L129.98 38.56L129.98 240.14L111.56 240.14L111.56 179.96L93.42 198.38L93.42 240.14L75 240.14L75 126.66L111.56 89.82L111.56 56.98L93.42 56.98L93.42 93.54ZM198.98 240.14L144 240.14L144 38.56L198.98 38.56L198.98 93.54L180.56 93.54L180.56 56.98L162.42 56.98L162.42 89.82L198.98 126.66L198.98 240.14ZM267.98 240.14L213 240.14L213 38.56L267.98 38.56L267.98 240.14ZM300.42 240.14L282 240.14L282 38.56L336.98 38.56L336.98 179.96L300.42 216.52L300.42 240.14ZM249.56 222L249.56 56.98L231.42 56.98L231.42 222L249.56 222ZM318.56 56.98L300.42 56.98L300.42 190.57L318.56 172.43L318.56 56.98ZM93.42 172.43L111.56 154.01L111.56 115.76L93.42 134.18L93.42 172.43ZM180.56 222L180.56 134.18L162.42 115.76L162.42 222L180.56 222Z" fill="#EB8317" fill-opacity="1.000000" fill-rule="evenodd"/>
		<path id="ЗАБОРСТРОЙ" d="M718.84 20.42L663.86 20.42L663.86 2L718.84 2L718.84 20.42ZM405.98 240.14L351 240.14L351 38.56L405.98 38.56L405.98 93.54L387.56 93.54L387.56 56.98L369.42 56.98L369.42 222L387.56 222L387.56 111.96L405.98 111.96L405.98 240.14ZM438.42 240.14L420 240.14L420 38.56L511.82 38.56L511.82 240.14L493.4 240.14L493.4 56.98L474.98 56.98L474.98 240.14L456.84 240.14L456.84 56.98L438.42 56.98L438.42 240.14ZM544.28 240.14L525.86 240.14L525.86 38.56L580.84 38.56L580.84 179.96L544.28 216.52L544.28 240.14ZM649.84 240.14L594.86 240.14L594.86 38.56L649.84 38.56L649.84 240.14ZM663.86 240.14L663.86 38.56L682.28 38.56L682.28 99.03L700.42 80.6L700.42 38.56L718.84 38.56L718.84 240.14L700.42 240.14L700.42 106.48L682.28 124.97L682.28 240.14L663.86 240.14ZM562.42 56.98L544.28 56.98L544.28 190.57L562.42 172.43L562.42 56.98ZM631.42 222L631.42 56.98L613.28 56.98L613.28 222L631.42 222Z" fill="#F3C623" fill-opacity="1.000000" fill-rule="evenodd"/>
	</g>
	<path id="ЗАБОРСТРОЙ" d="M6 93.54L24.42 93.54L24.42 56.98L42.56 56.98L42.56 89.82L11.48 121.18L24.42 134.18L33.63 124.97L42.56 134.18L42.56 222L24.42 222L24.42 148.53L6 148.53L6 240.14L60.98 240.14L60.98 126.66L46.28 111.96L60.98 97.55L60.98 38.56L6 38.56L6 93.54ZM75 93.54L93.42 93.54L93.42 56.98L111.56 56.98L111.56 89.82L75 126.66L75 240.14L93.42 240.14L93.42 198.38L111.56 179.96L111.56 240.14L129.98 240.14L129.98 38.56L75 38.56L75 93.54ZM111.56 154.01L93.42 172.43L93.42 134.18L111.56 115.76L111.56 154.01ZM144 240.14L198.98 240.14L198.98 126.66L162.42 89.82L162.42 56.98L180.56 56.98L180.56 93.54L198.98 93.54L198.98 38.56L144 38.56L144 240.14ZM180.56 134.18L180.56 222L162.42 222L162.42 115.76L180.56 134.18ZM213 240.14L267.98 240.14L267.98 38.56L213 38.56L213 240.14ZM249.56 56.98L249.56 222L231.42 222L231.42 56.98L249.56 56.98ZM282 240.14L300.42 240.14L300.42 216.52L336.98 179.96L336.98 38.56L282 38.56L282 240.14ZM300.42 56.98L318.56 56.98L318.56 172.43L300.42 190.57L300.42 56.98ZM351 240.14L405.98 240.14L405.98 111.96L387.56 111.96L387.56 222L369.42 222L369.42 56.98L387.56 56.98L387.56 93.54L405.98 93.54L405.98 38.56L351 38.56L351 240.14ZM420 240.14L438.42 240.14L438.42 56.98L456.84 56.98L456.84 240.14L474.98 240.14L474.98 56.98L493.4 56.98L493.4 240.14L511.82 240.14L511.82 38.56L420 38.56L420 240.14ZM525.86 240.14L544.28 240.14L544.28 216.52L580.84 179.96L580.84 38.56L525.86 38.56L525.86 240.14ZM544.28 56.98L562.42 56.98L562.42 172.43L544.28 190.57L544.28 56.98ZM594.86 240.14L649.84 240.14L649.84 38.56L594.86 38.56L594.86 240.14ZM631.42 56.98L631.42 222L613.28 222L613.28 56.98L631.42 56.98ZM663.86 20.42L718.84 20.42L718.84 2L663.86 2L663.86 20.42ZM663.86 38.56L663.86 240.14L682.28 240.14L682.28 124.97L700.42 106.48L700.42 240.14L718.84 240.14L718.84 38.56L700.42 38.56L700.42 80.6L682.28 99.03L682.28 38.56L663.86 38.56Z" stroke="#000000" stroke-opacity="1.000000" stroke-width="2.000000"/>
</svg>
