<svg width="690.000000" height="155.239990" viewBox="0 0 690 155.24" fill="none" xmlns="http://www.w3.org/2000/svg" xmlns:xlink="http://www.w3.org/1999/xlink">
	<desc>
			Created with Pixso.
	</desc>
	<defs>
		<clipPath id="clip22_462">
			<rect id="Профлист свг 2" width="690.000000" height="155.240005" fill="white" fill-opacity="0"/>
		</clipPath>
	</defs>
	<g clip-path="url(#clip22_462)">
		<rect id="rect" x="0.500000" y="0.500000" width="74.000000" height="151.000000" fill="#EB8317" fill-opacity="1.000000"/>
		<path id="path" d="M74 1L74 151L1 151L1 1L74 1ZM75 0L0 0L0 152L75 152L75 0Z" fill="#000000" fill-opacity="1.000000" fill-rule="nonzero"/>
		<g opacity="0.250000">
			<rect id="rect" width="5.000000" height="152.000000" fill="#000000" fill-opacity="1.000000"/>
		</g>
		<g opacity="0.250000">
			<rect id="rect" x="10.000000" width="5.000000" height="152.000000" fill="#000000" fill-opacity="1.000000"/>
		</g>
		<g opacity="0.250000">
			<rect id="rect" x="20.000000" width="5.000000" height="152.000000" fill="#000000" fill-opacity="1.000000"/>
		</g>
		<g opacity="0.250000">
			<rect id="rect" x="30.000000" width="5.000000" height="152.000000" fill="#000000" fill-opacity="1.000000"/>
		</g>
		<g opacity="0.250000">
			<rect id="rect" x="40.000000" width="5.000000" height="152.000000" fill="#000000" fill-opacity="1.000000"/>
		</g>
		<g opacity="0.250000">
			<rect id="rect" x="50.000000" width="5.000000" height="152.000000" fill="#000000" fill-opacity="1.000000"/>
		</g>
		<g opacity="0.250000">
			<rect id="rect" x="60.000000" width="5.000000" height="152.000000" fill="#000000" fill-opacity="1.000000"/>
		</g>
		<g opacity="0.250000">
			<rect id="rect" x="70.000000" width="5.000000" height="152.000000" fill="#000000" fill-opacity="1.000000"/>
		</g>
		<rect id="rect" x="70.500000" y="0.500000" width="74.000000" height="151.000000" fill="#EB8317" fill-opacity="1.000000"/>
		<path id="path" d="M144 1L144 151L71 151L71 1L144 1ZM145 0L70 0L70 152L145 152L145 0Z" fill="#000000" fill-opacity="1.000000" fill-rule="nonzero"/>
		<g opacity="0.250000">
			<rect id="rect" x="70.000000" width="5.000000" height="152.000000" fill="#000000" fill-opacity="1.000000"/>
		</g>
		<g opacity="0.250000">
			<rect id="rect" x="80.000000" width="5.000000" height="152.000000" fill="#000000" fill-opacity="1.000000"/>
		</g>
		<g opacity="0.250000">
			<rect id="rect" x="90.000000" width="5.000000" height="152.000000" fill="#000000" fill-opacity="1.000000"/>
		</g>
		<g opacity="0.250000">
			<rect id="rect" x="100.000000" width="5.000000" height="152.000000" fill="#000000" fill-opacity="1.000000"/>
		</g>
		<g opacity="0.250000">
			<rect id="rect" x="110.000000" width="5.000000" height="152.000000" fill="#000000" fill-opacity="1.000000"/>
		</g>
		<g opacity="0.250000">
			<rect id="rect" x="120.000000" width="5.000000" height="152.000000" fill="#000000" fill-opacity="1.000000"/>
		</g>
		<g opacity="0.250000">
			<rect id="rect" x="130.000000" width="5.000000" height="152.000000" fill="#000000" fill-opacity="1.000000"/>
		</g>
		<g opacity="0.250000">
			<rect id="rect" x="140.000000" width="5.000000" height="152.000000" fill="#000000" fill-opacity="1.000000"/>
		</g>
		<rect id="rect" x="140.500000" y="0.500000" width="74.000000" height="151.000000" fill="#EB8317" fill-opacity="1.000000"/>
		<path id="path" d="M214 1L214 151L141 151L141 1L214 1ZM215 0L140 0L140 152L215 152L215 0Z" fill="#000000" fill-opacity="1.000000" fill-rule="nonzero"/>
		<g opacity="0.250000">
			<rect id="rect" x="140.000000" width="5.000000" height="152.000000" fill="#000000" fill-opacity="1.000000"/>
		</g>
		<g opacity="0.250000">
			<rect id="rect" x="150.000000" width="5.000000" height="152.000000" fill="#000000" fill-opacity="1.000000"/>
		</g>
		<g opacity="0.250000">
			<rect id="rect" x="160.000000" width="5.000000" height="152.000000" fill="#000000" fill-opacity="1.000000"/>
		</g>
		<g opacity="0.250000">
			<rect id="rect" x="170.000000" width="5.000000" height="152.000000" fill="#000000" fill-opacity="1.000000"/>
		</g>
		<g opacity="0.250000">
			<rect id="rect" x="180.000000" width="5.000000" height="152.000000" fill="#000000" fill-opacity="1.000000"/>
		</g>
		<g opacity="0.250000">
			<rect id="rect" x="190.000000" width="5.000000" height="152.000000" fill="#000000" fill-opacity="1.000000"/>
		</g>
		<g opacity="0.250000">
			<rect id="rect" x="200.000000" width="5.000000" height="152.000000" fill="#000000" fill-opacity="1.000000"/>
		</g>
		<g opacity="0.250000">
			<rect id="rect" x="210.000000" width="5.000000" height="152.000000" fill="#000000" fill-opacity="1.000000"/>
		</g>
		<rect id="rect" x="210.500000" y="0.500000" width="74.000000" height="151.000000" fill="#EB8317" fill-opacity="1.000000"/>
		<path id="path" d="M284 1L284 151L211 151L211 1L284 1ZM285 0L210 0L210 152L285 152L285 0Z" fill="#000000" fill-opacity="1.000000" fill-rule="nonzero"/>
		<g opacity="0.250000">
			<rect id="rect" x="210.000000" width="5.000000" height="152.000000" fill="#000000" fill-opacity="1.000000"/>
		</g>
		<g opacity="0.250000">
			<rect id="rect" x="220.000000" width="5.000000" height="152.000000" fill="#000000" fill-opacity="1.000000"/>
		</g>
		<g opacity="0.250000">
			<rect id="rect" x="230.000000" width="5.000000" height="152.000000" fill="#000000" fill-opacity="1.000000"/>
		</g>
		<g opacity="0.250000">
			<rect id="rect" x="240.000000" width="5.000000" height="152.000000" fill="#000000" fill-opacity="1.000000"/>
		</g>
		<g opacity="0.250000">
			<rect id="rect" x="250.000000" width="5.000000" height="152.000000" fill="#000000" fill-opacity="1.000000"/>
		</g>
		<g opacity="0.250000">
			<rect id="rect" x="260.000000" width="5.000000" height="152.000000" fill="#000000" fill-opacity="1.000000"/>
		</g>
		<g opacity="0.250000">
			<rect id="rect" x="270.000000" width="5.000000" height="152.000000" fill="#000000" fill-opacity="1.000000"/>
		</g>
		<g opacity="0.250000">
			<rect id="rect" x="280.000000" width="5.000000" height="152.000000" fill="#000000" fill-opacity="1.000000"/>
		</g>
		<rect id="rect" x="280.500000" y="0.500000" width="74.000000" height="151.000000" fill="#EB8317" fill-opacity="1.000000"/>
		<path id="path" d="M354 1L354 151L281 151L281 1L354 1ZM355 0L280 0L280 152L355 152L355 0Z" fill="#000000" fill-opacity="1.000000" fill-rule="nonzero"/>
		<g opacity="0.250000">
			<rect id="rect" x="280.000000" width="5.000000" height="152.000000" fill="#000000" fill-opacity="1.000000"/>
		</g>
		<g opacity="0.250000">
			<rect id="rect" x="290.000000" width="5.000000" height="152.000000" fill="#000000" fill-opacity="1.000000"/>
		</g>
		<g opacity="0.250000">
			<rect id="rect" x="300.000000" width="5.000000" height="152.000000" fill="#000000" fill-opacity="1.000000"/>
		</g>
		<g opacity="0.250000">
			<rect id="rect" x="310.000000" width="5.000000" height="152.000000" fill="#000000" fill-opacity="1.000000"/>
		</g>
		<g opacity="0.250000">
			<rect id="rect" x="320.000000" width="5.000000" height="152.000000" fill="#000000" fill-opacity="1.000000"/>
		</g>
		<g opacity="0.250000">
			<rect id="rect" x="330.000000" width="5.000000" height="152.000000" fill="#000000" fill-opacity="1.000000"/>
		</g>
		<g opacity="0.250000">
			<rect id="rect" x="340.000000" width="5.000000" height="152.000000" fill="#000000" fill-opacity="1.000000"/>
		</g>
		<g opacity="0.250000">
			<rect id="rect" x="350.000000" width="5.000000" height="152.000000" fill="#000000" fill-opacity="1.000000"/>
		</g>
		<rect id="rect" x="350.500000" y="0.500000" width="74.000000" height="151.000000" fill="#EB8317" fill-opacity="1.000000"/>
		<path id="path" d="M424 1L424 151L351 151L351 1L424 1ZM425 0L350 0L350 152L425 152L425 0Z" fill="#000000" fill-opacity="1.000000" fill-rule="nonzero"/>
		<g opacity="0.250000">
			<rect id="rect" x="350.000000" width="5.000000" height="152.000000" fill="#000000" fill-opacity="1.000000"/>
		</g>
		<g opacity="0.250000">
			<rect id="rect" x="360.000000" width="5.000000" height="152.000000" fill="#000000" fill-opacity="1.000000"/>
		</g>
		<g opacity="0.250000">
			<rect id="rect" x="370.000000" width="5.000000" height="152.000000" fill="#000000" fill-opacity="1.000000"/>
		</g>
		<g opacity="0.250000">
			<rect id="rect" x="380.000000" width="5.000000" height="152.000000" fill="#000000" fill-opacity="1.000000"/>
		</g>
		<g opacity="0.250000">
			<rect id="rect" x="390.000000" width="5.000000" height="152.000000" fill="#000000" fill-opacity="1.000000"/>
		</g>
		<g opacity="0.250000">
			<rect id="rect" x="400.000000" width="5.000000" height="152.000000" fill="#000000" fill-opacity="1.000000"/>
		</g>
		<g opacity="0.250000">
			<rect id="rect" x="410.000000" width="5.000000" height="152.000000" fill="#000000" fill-opacity="1.000000"/>
		</g>
		<g opacity="0.250000">
			<rect id="rect" x="420.000000" width="5.000000" height="152.000000" fill="#000000" fill-opacity="1.000000"/>
		</g>
		<rect id="rect" x="420.500000" y="0.500000" width="74.000000" height="151.000000" fill="#EB8317" fill-opacity="1.000000"/>
		<path id="path" d="M494 1L494 151L421 151L421 1L494 1ZM495 0L420 0L420 152L495 152L495 0Z" fill="#000000" fill-opacity="1.000000" fill-rule="nonzero"/>
		<g opacity="0.250000">
			<rect id="rect" x="420.000000" width="5.000000" height="152.000000" fill="#000000" fill-opacity="1.000000"/>
		</g>
		<g opacity="0.250000">
			<rect id="rect" x="430.000000" width="5.000000" height="152.000000" fill="#000000" fill-opacity="1.000000"/>
		</g>
		<g opacity="0.250000">
			<rect id="rect" x="440.000000" width="5.000000" height="152.000000" fill="#000000" fill-opacity="1.000000"/>
		</g>
		<g opacity="0.250000">
			<rect id="rect" x="450.000000" width="5.000000" height="152.000000" fill="#000000" fill-opacity="1.000000"/>
		</g>
		<g opacity="0.250000">
			<rect id="rect" x="460.000000" width="5.000000" height="152.000000" fill="#000000" fill-opacity="1.000000"/>
		</g>
		<g opacity="0.250000">
			<rect id="rect" x="470.000000" width="5.000000" height="152.000000" fill="#000000" fill-opacity="1.000000"/>
		</g>
		<g opacity="0.250000">
			<rect id="rect" x="480.000000" width="5.000000" height="152.000000" fill="#000000" fill-opacity="1.000000"/>
		</g>
		<g opacity="0.250000">
			<rect id="rect" x="490.000000" width="5.000000" height="152.000000" fill="#000000" fill-opacity="1.000000"/>
		</g>
		<rect id="rect" x="490.500000" y="0.500000" width="74.000000" height="151.000000" fill="#EB8317" fill-opacity="1.000000"/>
		<path id="path" d="M564 1L564 151L491 151L491 1L564 1ZM565 0L490 0L490 152L565 152L565 0Z" fill="#000000" fill-opacity="1.000000" fill-rule="nonzero"/>
		<g opacity="0.250000">
			<rect id="rect" x="490.000000" width="5.000000" height="152.000000" fill="#000000" fill-opacity="1.000000"/>
		</g>
		<g opacity="0.250000">
			<rect id="rect" x="500.000000" width="5.000000" height="152.000000" fill="#000000" fill-opacity="1.000000"/>
		</g>
		<g opacity="0.250000">
			<rect id="rect" x="510.000000" width="5.000000" height="152.000000" fill="#000000" fill-opacity="1.000000"/>
		</g>
		<g opacity="0.250000">
			<rect id="rect" x="520.000000" width="5.000000" height="152.000000" fill="#000000" fill-opacity="1.000000"/>
		</g>
		<g opacity="0.250000">
			<rect id="rect" x="530.000000" width="5.000000" height="152.000000" fill="#000000" fill-opacity="1.000000"/>
		</g>
		<g opacity="0.250000">
			<rect id="rect" x="540.000000" width="5.000000" height="152.000000" fill="#000000" fill-opacity="1.000000"/>
		</g>
		<g opacity="0.250000">
			<rect id="rect" x="550.000000" width="5.000000" height="152.000000" fill="#000000" fill-opacity="1.000000"/>
		</g>
		<g opacity="0.250000">
			<rect id="rect" x="560.000000" width="5.000000" height="152.000000" fill="#000000" fill-opacity="1.000000"/>
		</g>
		<rect id="rect" x="560.500000" y="0.500000" width="74.000000" height="151.000000" fill="#EB8317" fill-opacity="1.000000"/>
		<path id="path" d="M634 1L634 151L561 151L561 1L634 1ZM635 0L560 0L560 152L635 152L635 0Z" fill="#000000" fill-opacity="1.000000" fill-rule="nonzero"/>
		<g opacity="0.250000">
			<rect id="rect" x="560.000000" width="5.000000" height="152.000000" fill="#000000" fill-opacity="1.000000"/>
		</g>
		<g opacity="0.250000">
			<rect id="rect" x="570.000000" width="5.000000" height="152.000000" fill="#000000" fill-opacity="1.000000"/>
		</g>
		<g opacity="0.250000">
			<rect id="rect" x="580.000000" width="5.000000" height="152.000000" fill="#000000" fill-opacity="1.000000"/>
		</g>
		<g opacity="0.250000">
			<rect id="rect" x="590.000000" width="5.000000" height="152.000000" fill="#000000" fill-opacity="1.000000"/>
		</g>
		<g opacity="0.250000">
			<rect id="rect" x="600.000000" width="5.000000" height="152.000000" fill="#000000" fill-opacity="1.000000"/>
		</g>
		<g opacity="0.250000">
			<rect id="rect" x="610.000000" width="5.000000" height="152.000000" fill="#000000" fill-opacity="1.000000"/>
		</g>
		<g opacity="0.250000">
			<rect id="rect" x="620.000000" width="5.000000" height="152.000000" fill="#000000" fill-opacity="1.000000"/>
		</g>
		<g opacity="0.250000">
			<rect id="rect" x="630.000000" width="5.000000" height="152.000000" fill="#000000" fill-opacity="1.000000"/>
		</g>
		<rect id="rect" x="630.500000" y="0.500000" width="59.000000" height="151.000000" fill="#EB8317" fill-opacity="1.000000"/>
		<path id="path" d="M689 1L689 151L631 151L631 1L689 1ZM690 0L630 0L630 152L690 152L690 0Z" fill="#000000" fill-opacity="1.000000" fill-rule="nonzero"/>
		<g opacity="0.250000">
			<rect id="rect" x="630.000000" width="5.000000" height="152.000000" fill="#000000" fill-opacity="1.000000"/>
		</g>
		<g opacity="0.250000">
			<rect id="rect" x="640.000000" width="5.000000" height="152.000000" fill="#000000" fill-opacity="1.000000"/>
		</g>
		<g opacity="0.250000">
			<rect id="rect" x="650.000000" width="5.000000" height="152.000000" fill="#000000" fill-opacity="1.000000"/>
		</g>
		<g opacity="0.250000">
			<rect id="rect" x="660.000000" width="5.000000" height="152.000000" fill="#000000" fill-opacity="1.000000"/>
		</g>
		<g opacity="0.250000">
			<rect id="rect" x="670.000000" width="5.000000" height="152.000000" fill="#000000" fill-opacity="1.000000"/>
		</g>
		<g opacity="0.250000">
			<rect id="rect" x="680.000000" width="5.000000" height="152.000000" fill="#000000" fill-opacity="1.000000"/>
		</g>
		<rect id="rect" x="4.070068" y="32.300018" width="341.429993" height="3.200001" fill="#FFFFFF" fill-opacity="1.000000"/>
		<path id="path" d="M345 32.8L345 35L4.57 35L4.57 32.8L345 32.8ZM346 31.8L3.57 31.8L3.57 36L346 36L346 31.8Z" fill="#000000" fill-opacity="1.000000" fill-rule="nonzero"/>
		<rect id="rect" x="4.679932" y="127.229980" width="341.429993" height="3.200005" fill="#FFFFFF" fill-opacity="1.000000"/>
		<path id="path" d="M345.61 127.73L345.61 129.92L5.17 129.92L5.17 127.73L345.61 127.73ZM346.61 126.73L4.17 126.73L4.17 130.92L346.61 130.92L346.61 126.73Z" fill="#000000" fill-opacity="1.000000" fill-rule="nonzero"/>
		<rect id="rect" x="2.500000" y="14.500000" width="5.000000" height="140.000000" fill="#FFFFFF" fill-opacity="1.000000"/>
		<path id="path" d="M7 15L7 154L3 154L3 15L7 15ZM8 14L2 14L2 155L8 155L8 14Z" fill="#000000" fill-opacity="1.000000" fill-rule="nonzero"/>
		<rect id="rect" x="172.500000" y="14.500000" width="5.000000" height="140.000000" fill="#FFFFFF" fill-opacity="1.000000"/>
		<path id="path" d="M177 15L177 154L173 154L173 15L177 15ZM178 14L172 14L172 155L178 155L178 14Z" fill="#000000" fill-opacity="1.000000" fill-rule="nonzero"/>
		<rect id="rect" x="342.500000" y="14.500000" width="5.000000" height="140.000000" fill="#FFFFFF" fill-opacity="1.000000"/>
		<path id="path" d="M347 15L347 154L343 154L343 15L347 15ZM348 14L342 14L342 155L348 155L348 14Z" fill="#000000" fill-opacity="1.000000" fill-rule="nonzero"/>
		<rect id="rect" x="344.180054" y="32.540009" width="341.429993" height="3.200001" fill="#FFFFFF" fill-opacity="1.000000"/>
		<path id="path" d="M685.11 33.04L685.11 35.24L344.68 35.24L344.68 33.04L685.11 33.04ZM686.11 32.04L343.68 32.04L343.68 36.24L686.11 36.24L686.11 32.04Z" fill="#000000" fill-opacity="1.000000" fill-rule="nonzero"/>
		<rect id="rect" x="344.790039" y="127.459961" width="341.429962" height="3.200005" fill="#FFFFFF" fill-opacity="1.000000"/>
		<path id="path" d="M685.72 127.96L685.72 130.16L345.29 130.16L345.29 127.96L685.72 127.96ZM686.72 126.96L344.29 126.96L344.29 131.16L686.72 131.16L686.72 126.96Z" fill="#000000" fill-opacity="1.000000" fill-rule="nonzero"/>
		<rect id="rect" x="342.609985" y="14.739990" width="5.000000" height="140.000000" fill="#FFFFFF" fill-opacity="1.000000"/>
		<path id="path" d="M347.11 15.24L347.11 154.24L343.11 154.24L343.11 15.24L347.11 15.24ZM348.11 14.24L342.11 14.24L342.11 155.24L348.11 155.24L348.11 14.24Z" fill="#000000" fill-opacity="1.000000" fill-rule="nonzero"/>
		<rect id="rect" x="512.609863" y="14.739990" width="5.000000" height="140.000000" fill="#FFFFFF" fill-opacity="1.000000"/>
		<path id="path" d="M517.11 15.24L517.11 154.24L513.11 154.24L513.11 15.24L517.11 15.24ZM518.11 14.24L512.11 14.24L512.11 155.24L518.11 155.24L518.11 14.24Z" fill="#000000" fill-opacity="1.000000" fill-rule="nonzero"/>
		<rect id="rect" x="682.609863" y="14.739990" width="5.000000" height="140.000000" fill="#FFFFFF" fill-opacity="1.000000"/>
		<path id="path" d="M687.11 15.24L687.11 154.24L683.11 154.24L683.11 15.24L687.11 15.24ZM688.11 14.24L682.11 14.24L682.11 155.24L688.11 155.24L688.11 14.24Z" fill="#000000" fill-opacity="1.000000" fill-rule="nonzero"/>
	</g>
</svg>
